<svg width="187" height="68" viewBox="0 0 187 68" fill="none" xmlns="http://www.w3.org/2000/svg">
<path d="M81.0702 31.09H76.5202C76.4168 31.09 76.3176 31.0489 76.2444 30.9758C76.1713 30.9026 76.1302 30.8034 76.1302 30.7V23.81C76.131 23.7165 76.0974 23.6259 76.0356 23.5557C75.9739 23.4854 75.8883 23.4404 75.7955 23.4293C75.7026 23.4181 75.6089 23.4416 75.5323 23.4952C75.4556 23.5489 75.4015 23.6289 75.3802 23.72C74.3802 27.72 72.2502 31.34 67.6402 31.34C63.2202 31.34 59.7202 28.55 59.7202 22.89V11.7C59.7202 10.02 59.5702 9.54001 58.6602 9.39001V9.06L63.1702 8H63.5202V23.65C63.5202 27.82 65.6802 31.28 69.8102 30.51C75.1802 29.46 76.1402 19.42 76.1402 15.39V11.7C76.1402 10.02 76.0002 9.54001 75.0902 9.39001V9.06L79.6002 8H79.9402V27.92C79.9402 29.6 80.2702 30.32 81.0402 30.75L81.0702 31.09Z" fill="white"/>
<path d="M101.76 11.6165C101.812 11.6819 101.84 11.763 101.84 11.8465C101.84 11.93 101.812 12.0111 101.76 12.0765L99.0002 15.9665L98.6702 15.7765C98.5702 13.0365 97.2302 9.48649 94.6702 9.86649C89.9702 10.5865 89.3502 22.9765 89.3502 27.0565V28.9265C89.3502 30.6065 89.6802 31.3265 90.4002 31.7565V32.0965H84.4002V31.7565C85.1702 31.3265 85.5002 30.6065 85.5002 28.9265V12.7065C85.5002 11.0265 85.3602 10.5465 84.4002 10.3965V10.0665L88.9102 9.0065H89.3002V16.5865C89.3034 16.6735 89.338 16.7564 89.3977 16.8199C89.4573 16.8833 89.5379 16.9229 89.6246 16.9315C89.7113 16.94 89.7981 16.9169 89.869 16.8664C89.9399 16.8158 89.99 16.7412 90.0102 16.6565C90.8802 12.5365 92.6102 9.0065 96.2102 9.0065C97.2775 8.95905 98.3404 9.17182 99.3073 9.6265C100.274 10.0812 101.116 10.7641 101.76 11.6165Z" fill="white"/>
<path d="M140.3 31.8V32.14H134.4V31.8C135.12 31.37 135.4 30.55 135.22 28.97C135.04 27.39 134.35 19.27 134.11 16.78C133.73 13.18 132.34 9.09997 128.59 9.90997C124.18 10.91 123.59 18.31 123.59 23.35V28.97C123.59 30.65 123.93 31.37 124.65 31.8V32.14H118.74V31.8C119.46 31.37 119.8 30.65 119.8 28.97V16.78C119.8 13.13 118.12 9.18997 114.37 9.90997C109 10.91 108.76 20.91 108.76 25.03V28.97C108.76 30.65 109.14 31.37 109.86 31.8V32.14H103.86V31.8C104.58 31.37 104.96 30.65 104.96 28.97V12.75C104.96 11.07 104.82 10.59 103.86 10.44V10.11L108.37 9.04999H108.71V17.49C108.719 17.522 108.737 17.5503 108.764 17.5704C108.79 17.5906 108.822 17.6016 108.855 17.6016C108.888 17.6016 108.92 17.5906 108.947 17.5704C108.973 17.5503 108.992 17.522 109 17.49C109.73 13.11 111.5 9.01996 116.44 9.01996C120.13 9.01996 123.3 12.19 123.44 17.47L123.49 18C124.07 13.34 125.84 9 130.69 9C134.48 9 137.17 11.83 137.75 17.45C138.28 22.1 138.75 27.14 138.9 28.92C139.05 30.7 139.58 31.37 140.3 31.8Z" fill="white"/>
<path d="M166.08 23.473C165.79 26.873 162.77 31.393 155.95 31.393C149.33 31.393 142.95 28.123 142.75 20.203C142.51 11.903 150.04 8.30299 155.33 8.01299C159.1 7.83299 164.18 9.503 165.46 14.343C165.499 14.4934 165.502 14.6508 165.47 14.8027C165.437 14.9546 165.37 15.0969 165.273 15.2182C165.176 15.3395 165.052 15.4365 164.911 15.5016C164.77 15.5666 164.615 15.598 164.46 15.593H161.23C163.97 16.313 166.46 19.103 166.08 23.473ZM159.26 15.593H147.66C147.425 15.5887 147.196 15.6676 147.013 15.8158C146.83 15.9639 146.705 16.1719 146.66 16.403C146.242 18.6984 146.414 21.0623 147.16 23.273C148.94 28.273 152.54 30.523 157.44 30.333C161.57 30.143 165.17 27.333 165.65 23.563C166.22 18.573 162.91 15.593 159.26 15.593ZM148.34 15.213H160.95C161.111 15.2205 161.271 15.189 161.417 15.1212C161.563 15.0534 161.691 14.9514 161.789 14.8238C161.887 14.6961 161.953 14.5467 161.981 14.3881C162.009 14.2295 161.999 14.0666 161.95 13.913C161.419 12.0893 160.224 10.5307 158.601 9.54418C156.977 8.55765 155.044 8.21475 153.18 8.58299C151.847 8.88985 150.614 9.53364 149.6 10.4528C148.587 11.372 147.826 12.5358 147.39 13.833C147.327 13.9869 147.303 14.1541 147.321 14.3195C147.338 14.4849 147.397 14.6433 147.491 14.7803C147.586 14.9174 147.713 15.0287 147.861 15.1042C148.009 15.1798 148.174 15.2172 148.34 15.213Z" fill="white"/>
<path d="M186.72 26.27C185.81 30.78 183.79 34.96 178.72 34.96C174.45 34.96 171.81 32.17 171.81 26.51V11.96H168.97V11.58C173.05 11.58 173.39 7.31 173.39 5H177.18C177.18 8.7 173.53 11.44 170.65 11.58H181.26V11.96H175.6V27.23C175.6 31.4 176.75 34.62 180.83 34.09C184 33.66 185.58 29.87 186.45 26.17L186.72 26.27Z" fill="white"/>
<path fill-rule="evenodd" clip-rule="evenodd" d="M42.3402 31.38C48.7702 31.38 55.3402 26.34 55.3402 18.66C55.3402 12.03 49.7602 8 43.3402 8C36.9202 8 30.3402 12.8 30.3402 20.72C30.3402 27.44 35.9102 31.38 42.3402 31.38ZM49.2336 12.6627C50.1401 13.9465 50.8571 15.4638 51.3402 17.12H51.3102C52.9902 22.93 51.5302 28.87 46.0602 30.51C43.498 31.2782 41.1553 30.7914 39.2118 29.4597L39.2702 29.33C38.6989 28.9453 38.2397 28.4162 37.9393 27.7964C37.6388 27.1767 37.5078 26.4885 37.5596 25.8017C37.6115 25.1149 37.8442 24.4541 38.2342 23.8865C38.6243 23.3188 39.1577 22.8646 39.7802 22.5699C40.642 22.2188 41.56 22.0258 42.4902 22C43.0542 21.9618 43.6153 21.8883 44.1702 21.78C45.525 21.4721 46.7576 20.768 47.711 19.7574C48.6644 18.7467 49.2955 17.4752 49.5239 16.1047C49.7167 14.9478 49.6152 13.7645 49.2336 12.6627ZM48.7684 12.0453C46.5299 9.26118 43.3172 7.80943 39.6802 8.85999C34.2102 10.44 32.6802 16.45 34.4002 22.26C35.1921 24.9351 36.5671 27.2435 38.3542 28.7956C38.121 28.5247 37.9229 28.2235 37.7656 27.899C37.4462 27.24 37.3068 26.5083 37.3617 25.7781C37.4165 25.0479 37.6636 24.3452 38.0778 23.7413C38.4921 23.1375 39.0587 22.654 39.7202 22.34C40.6128 21.9844 41.5599 21.7849 42.5202 21.75C43.0741 21.7151 43.6252 21.645 44.1702 21.54C45.485 21.2524 46.683 20.5761 47.6085 19.5989C48.534 18.6216 49.1442 17.3886 49.3599 16.0601C49.5755 14.7316 49.3867 13.3689 48.8179 12.1491C48.8017 12.1143 48.7852 12.0797 48.7684 12.0453Z" fill="white"/>
<path d="M14.5002 6.14236L16.6602 3.05234C16.7784 2.85014 16.9403 2.67701 17.1341 2.5455C17.3279 2.414 17.5486 2.32751 17.7802 2.29239C18.1511 2.37355 18.5081 2.50826 18.8402 2.69235C19.1387 2.79727 19.4637 2.80018 19.7641 2.70065C20.0644 2.60113 20.3233 2.4048 20.5002 2.14237C20.6563 1.8723 20.7211 1.55909 20.6851 1.24924C20.6491 0.939385 20.5141 0.649436 20.3002 0.422395C19.9792 0.1599 19.58 0.0115032 19.1654 0.000641922C18.7509 -0.0102194 18.3445 0.117012 18.0102 0.362336C17.3576 0.881686 16.8653 1.57505 16.5902 2.36234C16.3103 3.1278 15.9446 3.85918 15.5002 4.54239C14.3502 6.13239 11.7502 5.67235 10.0002 6.19235C8.17753 6.74819 6.47966 7.65149 5.00018 8.85239C3.42858 10.1297 2.16353 11.7433 1.2982 13.5743C0.43287 15.4053 -0.010691 17.4072 0.000183105 19.4323C0.000183105 25.0223 3.52018 28.8024 8.28018 30.2924C8.40089 30.3252 8.50744 30.3969 8.5834 30.4962C8.65937 30.5956 8.70052 30.7173 8.70052 30.8424C8.70052 30.9675 8.65937 31.0891 8.5834 31.1885C8.50744 31.2879 8.40089 31.3595 8.28018 31.3924C5.28018 32.1724 2.44018 33.7524 2.52018 36.1724C2.60018 38.5924 4.66018 39.5623 7.43018 39.3623C9.74018 39.2123 12.1802 38.0024 14.4302 36.6424C14.5521 36.5721 14.6954 36.5486 14.8334 36.5762C14.9714 36.6038 15.0946 36.6807 15.1802 36.7924C15.9064 37.8523 16.8859 38.7139 18.0298 39.299C19.1737 39.884 20.4457 40.174 21.7302 40.1424C26.1802 40.1424 31.4102 37.4724 31.4102 33.3424C31.4102 31.0424 30.2002 29.2624 27.0702 29.3424C24.4002 29.4524 21.1602 32.1724 17.2902 34.4724C13.9402 36.4724 10.9102 38.5524 8.24018 38.4724C6.30018 38.4724 5.41018 37.2124 5.31018 35.4724C5.05018 32.3324 9.08018 31.1224 12.5302 30.9724C12.7028 30.995 12.8776 30.995 13.0502 30.9724C20.1102 30.9724 27.2802 25.4823 27.2802 17.1123C27.2982 15.3227 26.8707 13.5567 26.0363 11.9734C25.2018 10.39 23.9867 9.03918 22.5002 8.04239L22.4202 7.97238C22.06 7.81466 21.7441 7.57082 21.5002 7.26236C21.0293 7.12335 20.5683 6.95296 20.1202 6.75235L19.9902 6.68234H19.8402C18.0324 5.9658 15.9448 5.63932 14.0002 5.64236L13.4802 5.75238M4.37018 21.1123C2.54018 14.7923 4.16019 8.25237 10.1202 6.52237C16.0802 4.79237 21.0002 9.24237 22.8302 15.5224C24.6602 21.8024 22.9902 28.3823 17.0802 30.1123C11.1702 31.8423 6.25018 27.3824 4.42018 21.1424L4.37018 21.1123ZM28.1702 34.2423C27.9602 37.6923 25.7102 39.8424 21.6802 39.7824C20.3807 39.8068 19.0985 39.4818 17.9675 38.8415C16.8364 38.2012 15.898 37.2691 15.2502 36.1424L17.6002 34.7324C20.6002 32.8524 23.9802 30.6024 25.6002 30.3924C27.6902 30.0524 28.3202 31.8224 28.2202 34.2324L28.1702 34.2423Z" fill="white"/>
<path d="M67.7902 38.5791C67.838 38.6406 67.864 38.7162 67.864 38.7941C67.864 38.872 67.838 38.9477 67.7902 39.0091L65.0202 42.9191L64.6802 42.7291C64.5902 39.9891 63.2402 36.4391 60.6802 36.8191C55.9702 37.5391 55.3502 49.9291 55.3502 54.0091V55.8791C55.3502 57.5591 55.6902 58.2791 56.4102 58.7091V59.0491H50.4102V58.7091C51.1802 58.2791 51.5202 57.5591 51.5202 55.8791V39.6491C51.5202 37.9691 51.3702 37.4891 50.4102 37.3491V37.0091L54.9302 36.0091H55.3102V43.7491C55.3009 43.8393 55.3278 43.9294 55.385 43.9998C55.4422 44.0701 55.525 44.1148 55.6152 44.1241C55.7054 44.1334 55.7955 44.1065 55.8658 44.0493C55.9362 43.9921 55.9809 43.9093 55.9902 43.8191C56.8502 39.6291 58.5802 36.0091 62.2202 36.0091C63.2875 35.9529 64.3525 36.1575 65.323 36.6053C66.2935 37.0531 67.1403 37.7306 67.7902 38.5791Z" fill="white"/>
<path d="M93.1996 50.4636C92.9096 53.8736 89.8896 58.3837 83.0696 58.3837C76.4496 58.3837 70.0696 55.1237 69.8696 47.2037C69.6296 38.8937 77.1696 35.2937 82.4496 35.0137C86.5296 34.8137 92.1496 36.7836 92.8196 42.5936H88.3496C91.0896 43.3136 93.5896 46.1036 93.1996 50.4636ZM86.3896 42.5536H73.9496C73.3365 45.0945 73.4544 47.7569 74.2896 50.2336C76.0596 55.2336 79.6696 57.4836 84.5596 57.2936C88.6896 57.1036 92.2896 54.2936 92.7696 50.5236C93.3496 45.5536 90.0296 42.5536 86.3896 42.5536ZM74.0496 42.1736H89.3596C89.2331 41.1282 88.8929 40.1199 88.3602 39.2114C87.8275 38.303 87.1136 37.5138 86.263 36.8929C85.4123 36.2721 84.4431 35.8328 83.4155 35.6024C82.3879 35.372 81.3239 35.3554 80.2896 35.5536C77.0196 36.2136 74.9096 38.9436 74.0496 42.2136V42.1736Z" fill="white"/>
<path d="M118.576 50.4636C118.286 53.8736 115.256 58.3837 108.446 58.3837C101.816 58.3837 95.4456 55.1237 95.2456 47.2037C95.0056 38.8937 102.536 35.2937 107.816 35.0137C111.896 34.8137 117.516 36.7836 118.186 42.5936H113.726C116.456 43.3136 118.956 46.1036 118.576 50.4636ZM111.756 42.5536H99.3255C98.7092 45.0936 98.8236 47.756 99.6556 50.2336C101.436 55.2336 105.036 57.4836 109.936 57.2936C114.056 57.1036 117.656 54.2936 118.136 50.5236C118.716 45.5536 115.406 42.5536 111.756 42.5536ZM99.4156 42.1736H114.736C114.609 41.1269 114.269 40.1173 113.735 39.2076C113.202 38.298 112.488 37.5078 111.636 36.886C110.784 36.2642 109.814 35.8242 108.785 35.5933C107.756 35.3623 106.691 35.3454 105.656 35.5436C102.396 36.2136 100.276 38.9436 99.4156 42.2136V42.1736Z" fill="white"/>
<path d="M144.414 58.7V59.04H138.414V58.7C139.184 58.27 139.414 57.45 139.234 55.87C139.054 54.29 138.374 46.17 138.134 43.68C137.794 40.08 136.014 35.99 131.894 36.81C126.514 37.87 125.504 47.9 125.504 51.93V55.87C125.504 57.55 125.844 58.27 126.614 58.7V59.04H120.614V58.7C121.334 58.27 121.674 57.55 121.674 55.87V39.64C121.674 37.96 121.524 37.48 120.614 37.34V37L125.124 36H125.464V43.35C125.47 43.4456 125.509 43.5362 125.574 43.6061C125.64 43.676 125.727 43.7207 125.822 43.7325C125.917 43.7444 126.014 43.7227 126.094 43.6711C126.175 43.6195 126.235 43.5413 126.264 43.45C127.264 39.45 129.404 36 133.964 36C137.894 36 141.254 38.68 141.834 44.45C142.314 49.1 142.834 54.14 142.984 55.92C143.134 57.7 143.694 58.27 144.414 58.7Z" fill="white"/>
<path d="M31.5002 33.1424L33.6602 30.0523C33.7784 29.8501 33.9403 29.677 34.1341 29.5455C34.3279 29.414 34.5486 29.3275 34.7802 29.2924C35.1511 29.3736 35.5081 29.5083 35.8402 29.6924C36.1387 29.7973 36.4637 29.8002 36.7641 29.7007C37.0644 29.6011 37.3233 29.4048 37.5002 29.1424C37.6563 28.8723 37.7211 28.5591 37.6851 28.2492C37.6491 27.9394 37.5141 27.6494 37.3002 27.4224C36.9792 27.1599 36.58 27.0115 36.1654 27.0006C35.7509 26.9898 35.3445 27.117 35.0102 27.3623C34.3576 27.8817 33.8653 28.5751 33.5902 29.3623C33.3103 30.1278 32.9446 30.8592 32.5002 31.5424C31.3502 33.1324 28.7502 32.6724 27.0002 33.1924C25.1775 33.7482 23.4797 34.6515 22.0002 35.8524C20.4286 37.1297 19.1635 38.7433 18.2982 40.5743C17.4329 42.4053 16.9893 44.4072 17.0002 46.4323C17.0002 52.0223 20.5202 55.8024 25.2802 57.2924C25.4009 57.3252 25.5074 57.3969 25.5834 57.4962C25.6594 57.5956 25.7005 57.7173 25.7005 57.8424C25.7005 57.9675 25.6594 58.0891 25.5834 58.1885C25.5074 58.2879 25.4009 58.3595 25.2802 58.3924C22.2802 59.1724 19.4402 60.7524 19.5202 63.1724C19.6002 65.5924 21.6602 66.5623 24.4302 66.3623C26.7402 66.2123 29.1802 65.0024 31.4302 63.6424C31.5521 63.5721 31.6954 63.5486 31.8334 63.5762C31.9714 63.6038 32.0946 63.6807 32.1802 63.7924C32.9064 64.8523 33.8859 65.7139 35.0298 66.299C36.1737 66.884 37.4457 67.174 38.7302 67.1424C43.1802 67.1424 48.4102 64.4724 48.4102 60.3424C48.4102 58.0424 47.2002 56.2624 44.0702 56.3424C41.4002 56.4524 38.1602 59.1724 34.2902 61.4724C30.9402 63.4724 27.9102 65.5524 25.2402 65.4724C23.3002 65.4724 22.4102 64.2124 22.3102 62.4724C22.0502 59.3324 26.0802 58.1224 29.5302 57.9724C29.7028 57.995 29.8776 57.995 30.0502 57.9724C37.1102 57.9724 44.2802 52.4823 44.2802 44.1123C44.2982 42.3227 43.8707 40.5567 43.0363 38.9734C42.2018 37.39 40.9867 36.0392 39.5002 35.0424L39.4202 34.9724C39.06 34.8147 38.7441 34.5708 38.5002 34.2624C38.0293 34.1233 37.5683 33.953 37.1202 33.7524L36.9902 33.6823H36.8402C35.0324 32.9658 32.9448 32.6393 31.0002 32.6424L30.4802 32.7524M21.3702 48.1123C19.5402 41.7923 21.1602 35.2524 27.1202 33.5224C33.0802 31.7924 38.0002 36.2424 39.8302 42.5224C41.6602 48.8024 39.9902 55.3823 34.0802 57.1123C28.1702 58.8423 23.2502 54.3824 21.4202 48.1424L21.3702 48.1123ZM45.1702 61.2423C44.9602 64.6923 42.7102 66.8424 38.6802 66.7824C37.3807 66.8068 36.0985 66.4818 34.9675 65.8415C33.8364 65.2012 32.898 64.2691 32.2502 63.1424L34.6002 61.7324C37.6002 59.8524 40.9802 57.6024 42.6002 57.3924C44.6902 57.0524 45.3202 58.8224 45.2202 61.2324L45.1702 61.2423Z" fill="white"/>
</svg>
