<svg width="206" height="13" viewBox="0 0 206 13" fill="none" xmlns="http://www.w3.org/2000/svg">
<path d="M79.8745 9.83551H78.6428C78.6148 9.83551 78.5879 9.8225 78.5681 9.79937C78.5483 9.77623 78.5372 9.74485 78.5372 9.71213V7.53243C78.5375 7.50284 78.5283 7.4742 78.5116 7.45197C78.4949 7.42975 78.4718 7.41551 78.4466 7.41199C78.4215 7.40846 78.3961 7.41589 78.3754 7.43286C78.3546 7.44983 78.34 7.47514 78.3342 7.50395C78.0635 8.76938 77.4869 9.9146 76.239 9.9146C75.0425 9.9146 74.0951 9.03197 74.0951 7.24139V3.70137C74.0951 3.1699 74.0545 3.01805 73.8082 2.97059V2.86619L75.029 2.53085H75.1237V7.48183C75.1237 8.80103 75.7084 9.89562 76.8264 9.65202C78.2801 9.31985 78.5399 6.14364 78.5399 4.86873V3.70137C78.5399 3.1699 78.502 3.01805 78.2557 2.97059V2.86619L79.4765 2.53085H79.5686V8.83265C79.5686 9.36413 79.6579 9.59191 79.8663 9.72794L79.8745 9.83551Z" fill="#F4D3A2"/>
<path d="M85.4752 3.67494C85.4892 3.69564 85.4969 3.72129 85.4969 3.74771C85.4969 3.77414 85.4892 3.79977 85.4752 3.82047L84.728 5.0511L84.6387 4.99099C84.6116 4.12418 84.2489 3.0011 83.5559 3.12132C82.2837 3.34909 82.1158 7.26874 82.1158 8.55947V9.15105C82.1158 9.68253 82.2052 9.91031 82.4001 10.0463V10.1539H80.7759V10.0463C80.9843 9.91031 81.0736 9.68253 81.0736 9.15105V4.01978C81.0736 3.4883 81.0357 3.33645 80.7759 3.28899V3.18459L81.9967 2.84926H82.1023V5.24724C82.1032 5.27477 82.1125 5.30099 82.1287 5.32105C82.1448 5.34112 82.1667 5.35367 82.1901 5.35637C82.2136 5.35907 82.2371 5.35177 82.2563 5.33577C82.2755 5.31977 82.289 5.29619 82.2945 5.26938C82.53 3.966 82.9983 2.84926 83.9728 2.84926C84.2617 2.83424 84.5495 2.90155 84.8112 3.04539C85.0729 3.18924 85.3008 3.40529 85.4752 3.67494Z" fill="#F4D3A2"/>
<path d="M95.9078 10.0601V10.1677H94.3107V10.0601C94.5056 9.92407 94.5814 9.66465 94.5327 9.16481C94.484 8.66497 94.2972 6.09616 94.2322 5.30844C94.1293 4.16955 93.7531 2.87883 92.738 3.13507C91.5442 3.45143 91.3845 5.79246 91.3845 7.38689V9.16481C91.3845 9.69629 91.4765 9.92407 91.6714 10.0601V10.1677H90.0716V10.0601C90.2665 9.92407 90.3585 9.69629 90.3585 9.16481V5.30844C90.3585 4.15374 89.9038 2.9073 88.8887 3.13507C87.435 3.45143 87.3701 6.61498 87.3701 7.91837V9.16481C87.3701 9.69629 87.4729 9.92407 87.6678 10.0601V10.1677H86.0436V10.0601C86.2385 9.92407 86.3414 9.69629 86.3414 9.16481V4.03353C86.3414 3.50205 86.3035 3.3502 86.0436 3.30275V3.19835L87.2645 2.86301H87.3565V5.53305C87.3588 5.54318 87.3639 5.55212 87.371 5.5585C87.3781 5.56489 87.3868 5.56835 87.3958 5.56835C87.4047 5.56835 87.4134 5.56489 87.4205 5.5585C87.4276 5.55212 87.4327 5.54318 87.435 5.53305C87.6326 4.14742 88.1118 2.85351 89.449 2.85351C90.4479 2.85351 91.306 3.85636 91.3439 5.52672L91.3574 5.6944C91.5144 4.22018 91.9935 2.8472 93.3064 2.8472C94.3324 2.8472 95.0605 3.74249 95.2175 5.52041C95.361 6.99146 95.4882 8.58588 95.5288 9.149C95.5695 9.71211 95.7129 9.92407 95.9078 10.0601Z" fill="#F4D3A2"/>
<path d="M102.886 7.42583C102.808 8.50144 101.99 9.93136 100.144 9.93136C98.3522 9.93136 96.6252 8.89687 96.571 6.39134C96.5061 3.76559 98.5444 2.6267 99.9764 2.53496C100.997 2.47802 102.372 3.00634 102.719 4.5375C102.729 4.58508 102.73 4.63487 102.721 4.68293C102.712 4.73099 102.694 4.77599 102.668 4.81437C102.642 4.85274 102.608 4.88344 102.57 4.90402C102.532 4.9246 102.49 4.93451 102.448 4.93294H101.573C102.315 5.16072 102.989 6.04335 102.886 7.42583ZM101.04 4.93294H97.9001C97.8364 4.93159 97.7744 4.95655 97.7248 5.00342C97.6753 5.05029 97.6415 5.11607 97.6294 5.18919C97.5163 5.91535 97.5629 6.6632 97.7648 7.36255C98.2466 8.94433 99.2211 9.65613 100.548 9.59602C101.666 9.53591 102.64 8.64695 102.77 7.45429C102.924 5.87567 102.028 4.93294 101.04 4.93294ZM98.0842 4.81273H101.498C101.541 4.81509 101.585 4.80512 101.624 4.78369C101.664 4.76225 101.698 4.72997 101.725 4.68959C101.751 4.64922 101.769 4.60193 101.777 4.55177C101.784 4.5016 101.782 4.45005 101.768 4.40147C101.625 3.82454 101.301 3.33145 100.862 3.01936C100.422 2.70727 99.8988 2.59879 99.3944 2.71529C99.0334 2.81236 98.6998 3.01603 98.4254 3.30681C98.1509 3.59759 97.9449 3.96577 97.8271 4.37615C97.8099 4.42483 97.8035 4.47773 97.8082 4.53006C97.813 4.5824 97.8289 4.6325 97.8544 4.67585C97.88 4.7192 97.9144 4.75442 97.9545 4.77832C97.9946 4.80222 98.0392 4.81405 98.0842 4.81273Z" fill="#F4D3A2"/>
<path d="M108.474 8.31066C108.227 9.73743 107.68 11.0598 106.308 11.0598C105.152 11.0598 104.437 10.1772 104.437 8.38658V3.78361H103.669V3.6634C104.773 3.6634 104.865 2.31255 104.865 1.58177H105.891C105.891 2.75229 104.903 3.61911 104.123 3.6634H106.996V3.78361H105.463V8.61437C105.463 9.93357 105.775 10.9522 106.879 10.7846C107.737 10.6485 108.165 9.44955 108.4 8.27903L108.474 8.31066Z" fill="#F4D3A2"/>
<path fill-rule="evenodd" clip-rule="evenodd" d="M69.3904 9.92725C71.131 9.92725 72.9094 8.33281 72.9094 5.9032C72.9094 3.80576 71.399 2.53085 69.6611 2.53085C67.9232 2.53085 66.142 4.04935 66.142 6.55489C66.142 8.6808 67.6498 9.92725 69.3904 9.92725ZM71.2564 4.00593C71.5018 4.41207 71.6959 4.89207 71.8267 5.41601H71.8185C72.2733 7.25404 71.8781 9.1332 70.3974 9.65202C69.7038 9.89504 69.0696 9.74104 68.5435 9.31975L68.5593 9.2787C68.4047 9.157 68.2804 8.98963 68.1991 8.79357C68.1177 8.59752 68.0823 8.37978 68.0963 8.16252C68.1103 7.94526 68.1733 7.73621 68.2789 7.55663C68.3845 7.37705 68.5289 7.23335 68.6974 7.14014C68.9307 7.02905 69.1792 6.96798 69.431 6.95983C69.5837 6.94774 69.7356 6.92449 69.8858 6.89022C70.2525 6.79283 70.5862 6.57009 70.8443 6.25037C71.1023 5.93064 71.2732 5.52839 71.335 5.09483C71.3872 4.72883 71.3597 4.3545 71.2564 4.00593ZM71.1305 3.81061C70.5245 2.92984 69.6549 2.47056 68.6703 2.80291C67.1896 3.30276 66.7755 5.20406 67.2411 7.04209C67.4554 7.88838 67.8276 8.61865 68.3114 9.10967C68.2483 9.02394 68.1946 8.92866 68.1521 8.82601C68.0656 8.61755 68.0279 8.38607 68.0427 8.15507C68.0576 7.92406 68.1245 7.70174 68.2366 7.51071C68.3487 7.31968 68.5021 7.16674 68.6812 7.06738C68.9228 6.9549 69.1792 6.89178 69.4391 6.88074C69.5891 6.86971 69.7382 6.84751 69.8858 6.8143C70.2417 6.72333 70.566 6.50938 70.8165 6.20022C71.067 5.89107 71.2322 5.50101 71.2906 5.08072C71.349 4.66043 71.2979 4.22934 71.1439 3.84345C71.1395 3.83245 71.135 3.8215 71.1305 3.81061Z" fill="#F4D3A2"/>
<path d="M61.8542 1.94317L62.4389 0.965624C62.4709 0.901659 62.5147 0.846886 62.5672 0.805284C62.6196 0.763682 62.6794 0.736322 62.7421 0.72521C62.8425 0.750887 62.9391 0.793504 63.029 0.851741C63.1098 0.884933 63.1978 0.885853 63.2791 0.854367C63.3604 0.822881 63.4305 0.760771 63.4784 0.677749C63.5206 0.592312 63.5382 0.493227 63.5284 0.395203C63.5187 0.29718 63.4821 0.205453 63.4242 0.133627C63.3373 0.0505851 63.2293 0.00363911 63.1171 0.000203076C63.0049 -0.00323296 62.8948 0.0370174 62.8043 0.114627C62.6277 0.278926 62.4944 0.498277 62.4199 0.747338C62.3442 0.989498 62.2452 1.22087 62.1249 1.43701C61.8136 1.94002 61.1098 1.79448 60.6361 1.95899C60.1427 2.13483 59.6831 2.42059 59.2826 2.8005C58.8572 3.20459 58.5147 3.71505 58.2805 4.29431C58.0462 4.87357 57.9262 5.50685 57.9291 6.14753C57.9291 7.91596 58.8819 9.1118 60.1705 9.58317C60.2031 9.59356 60.232 9.61622 60.2525 9.64766C60.2731 9.6791 60.2842 9.71758 60.2842 9.75716C60.2842 9.79673 60.2731 9.83522 60.2525 9.86666C60.232 9.8981 60.2031 9.92076 60.1705 9.93115C59.3584 10.1779 58.5896 10.6778 58.6113 11.4433C58.6329 12.2089 59.1905 12.5158 59.9404 12.4525C60.5657 12.405 61.2262 12.0223 61.8352 11.592C61.8683 11.5698 61.907 11.5624 61.9444 11.5711C61.9818 11.5798 62.0151 11.6041 62.0383 11.6395C62.2348 11.9748 62.5 12.2474 62.8097 12.4325C63.1193 12.6175 63.4636 12.7093 63.8113 12.6993C65.0159 12.6993 66.4317 11.8546 66.4317 10.548C66.4317 9.82043 66.1041 9.25732 65.2569 9.28263C64.5341 9.31743 63.657 10.1779 62.6094 10.9055C61.7026 11.5382 60.8824 12.1963 60.1596 12.171C59.6345 12.171 59.3936 11.7723 59.3665 11.2219C59.2961 10.2285 60.387 9.84574 61.3209 9.79829C61.3676 9.80545 61.415 9.80545 61.4617 9.79829C63.3728 9.79829 65.3137 8.06148 65.3137 5.41358C65.3186 4.84742 65.2028 4.28873 64.977 3.78784C64.7511 3.28695 64.4221 2.8596 64.0198 2.54426L63.9981 2.52211C63.9006 2.47221 63.8151 2.39507 63.7491 2.29749C63.6216 2.25351 63.4968 2.19961 63.3755 2.13614L63.3403 2.114H63.2997C62.8103 1.88731 62.2453 1.78403 61.7188 1.78499L61.5781 1.8198M59.112 6.67901C58.6167 4.67964 59.0552 2.61068 60.6685 2.06339C62.2819 1.51609 63.6137 2.92388 64.1091 4.91059C64.6045 6.8973 64.1524 8.97891 62.5526 9.52621C60.9528 10.0735 59.6209 8.66257 59.1256 6.68851L59.112 6.67901ZM65.5546 10.8328C65.4978 11.9242 64.8887 12.6044 63.7978 12.5854C63.446 12.5931 63.099 12.4903 62.7928 12.2877C62.4866 12.0852 62.2326 11.7903 62.0572 11.4338L62.6934 10.9878C63.5054 10.393 64.4204 9.68123 64.8589 9.6148C65.4247 9.50723 65.5952 10.0672 65.5682 10.8296L65.5546 10.8328Z" fill="#F4D3A2"/>
<path d="M127.366 3.66312C127.378 3.68256 127.385 3.70648 127.385 3.73112C127.385 3.75576 127.378 3.7797 127.366 3.79915L126.616 5.03609L126.524 4.97598C126.499 4.10917 126.134 2.98611 125.441 3.10633C124.166 3.3341 123.998 7.25375 123.998 8.54448V9.13606C123.998 9.66754 124.09 9.89532 124.285 10.0314V10.1389H122.661V10.0314C122.869 9.89532 122.961 9.66754 122.961 9.13606V4.00162C122.961 3.47014 122.921 3.31828 122.661 3.27399V3.16644L123.884 2.85008H123.987V5.29867C123.985 5.3272 123.992 5.35572 124.007 5.37797C124.023 5.40022 124.045 5.41437 124.07 5.4173C124.094 5.42024 124.119 5.41173 124.138 5.39363C124.157 5.37554 124.169 5.34934 124.171 5.32082C124.404 3.99529 124.872 2.85008 125.858 2.85008C126.147 2.8323 126.435 2.89703 126.698 3.03869C126.96 3.18035 127.19 3.39467 127.366 3.66312Z" fill="#F4D3A2"/>
<path d="M134.244 7.42286C134.165 8.50163 133.348 9.92841 131.502 9.92841C129.71 9.92841 127.983 8.89709 127.928 6.39155C127.863 3.76264 129.904 2.62376 131.334 2.53518C132.438 2.47191 133.96 3.09511 134.141 4.93314H132.931C133.673 5.16091 134.349 6.04354 134.244 7.42286ZM132.4 4.92049H129.033C128.867 5.7243 128.899 6.56657 129.125 7.3501C129.604 8.93188 130.581 9.64368 131.905 9.58357C133.023 9.52346 133.997 8.6345 134.127 7.44184C134.284 5.86955 133.386 4.92049 132.4 4.92049ZM129.06 4.80027H133.204C133.17 4.46953 133.078 4.15055 132.934 3.86316C132.79 3.57577 132.596 3.32611 132.366 3.12969C132.136 2.93328 131.873 2.79432 131.595 2.72143C131.317 2.64854 131.029 2.64329 130.749 2.706C129.864 2.9148 129.293 3.77844 129.06 4.81292V4.80027Z" fill="#F4D3A2"/>
<path d="M141.113 7.42286C141.034 8.50163 140.214 9.92841 138.371 9.92841C136.576 9.92841 134.852 8.89709 134.798 6.39155C134.733 3.76264 136.771 2.62376 138.2 2.53518C139.305 2.47191 140.826 3.09511 141.007 4.93314H139.8C140.539 5.16091 141.216 6.04354 141.113 7.42286ZM139.267 4.92049H135.902C135.735 5.72401 135.766 6.56627 135.991 7.3501C136.473 8.93188 137.448 9.64368 138.774 9.58357C139.889 9.52346 140.864 8.6345 140.994 7.44184C141.151 5.86955 140.255 4.92049 139.267 4.92049ZM135.926 4.80027H140.073C140.039 4.46912 139.947 4.14973 139.803 3.86196C139.658 3.57419 139.465 3.3242 139.234 3.12749C139.004 2.93079 138.741 2.79159 138.463 2.71853C138.184 2.64548 137.896 2.64013 137.616 2.70283C136.733 2.91479 136.159 3.77844 135.926 4.81292V4.80027Z" fill="#F4D3A2"/>
<path d="M148.107 10.0285V10.136H146.483V10.0285C146.692 9.89244 146.754 9.63302 146.705 9.13318C146.656 8.63334 146.472 6.06453 146.407 5.27681C146.315 4.13793 145.833 2.84403 144.718 3.10345C143.262 3.43878 142.988 6.61183 142.988 7.88674V9.13318C142.988 9.66466 143.08 9.89244 143.289 10.0285V10.136H141.665V10.0285C141.86 9.89244 141.952 9.66466 141.952 9.13318V3.99874C141.952 3.46726 141.911 3.31539 141.665 3.2711V3.16355L142.886 2.8472H142.978V5.1724C142.979 5.20264 142.99 5.23132 143.007 5.25342C143.025 5.27553 143.049 5.28967 143.075 5.29343C143.1 5.29719 143.126 5.29032 143.148 5.27399C143.17 5.25766 143.186 5.23292 143.194 5.20405C143.465 3.93863 144.044 2.8472 145.279 2.8472C146.342 2.8472 147.252 3.69504 147.409 5.52041C147.539 6.99146 147.68 8.58588 147.72 9.149C147.761 9.71211 147.912 9.89244 148.107 10.0285Z" fill="#F4D3A2"/>
<path d="M117.542 1.94317L118.127 0.965624C118.159 0.901659 118.202 0.846886 118.255 0.805284C118.307 0.763682 118.367 0.736322 118.43 0.72521C118.53 0.750887 118.627 0.793504 118.717 0.851741C118.798 0.884933 118.886 0.885853 118.967 0.854367C119.048 0.822881 119.118 0.760771 119.166 0.677749C119.208 0.592312 119.226 0.493227 119.216 0.395203C119.206 0.29718 119.17 0.205453 119.112 0.133627C119.025 0.0505851 118.917 0.00363911 118.805 0.000203076C118.693 -0.00323296 118.583 0.0370174 118.492 0.114627C118.315 0.278926 118.182 0.498277 118.108 0.747338C118.032 0.989498 117.933 1.22087 117.813 1.43701C117.501 1.94002 116.798 1.79448 116.324 1.95899C115.83 2.13483 115.371 2.42059 114.97 2.8005C114.545 3.20459 114.202 3.71505 113.968 4.29431C113.734 4.87357 113.614 5.50685 113.617 6.14753C113.617 7.91596 114.57 9.1118 115.858 9.58317C115.891 9.59356 115.92 9.61622 115.94 9.64766C115.961 9.6791 115.972 9.71758 115.972 9.75716C115.972 9.79673 115.961 9.83522 115.94 9.86666C115.92 9.8981 115.891 9.92076 115.858 9.93115C115.046 10.1779 114.277 10.6778 114.299 11.4433C114.321 12.2089 114.878 12.5158 115.628 12.4525C116.253 12.405 116.914 12.0223 117.523 11.592C117.556 11.5698 117.595 11.5624 117.632 11.5711C117.669 11.5798 117.703 11.6041 117.726 11.6395C117.923 11.9748 118.188 12.2474 118.497 12.4325C118.807 12.6175 119.151 12.7093 119.499 12.6993C120.704 12.6993 122.119 11.8546 122.119 10.548C122.119 9.82043 121.792 9.25732 120.945 9.28263C120.222 9.31743 119.345 10.1779 118.297 10.9055C117.39 11.5382 116.57 12.1963 115.847 12.171C115.322 12.171 115.081 11.7723 115.054 11.2219C114.984 10.2285 116.075 9.84574 117.009 9.79829C117.055 9.80545 117.103 9.80545 117.149 9.79829C119.061 9.79829 121.001 8.06148 121.001 5.41358C121.006 4.84742 120.891 4.28873 120.665 3.78784C120.439 3.28695 120.11 2.8596 119.708 2.54426L119.686 2.52211C119.588 2.47221 119.503 2.39507 119.437 2.29749C119.309 2.25351 119.185 2.19961 119.063 2.13614L119.028 2.114H118.987C118.498 1.88731 117.933 1.78403 117.407 1.78499L117.266 1.8198M114.8 6.67901C114.304 4.67964 114.743 2.61068 116.356 2.06339C117.97 1.51609 119.301 2.92388 119.797 4.91059C120.292 6.8973 119.84 8.97891 118.24 9.52621C116.641 10.0735 115.309 8.66257 114.813 6.68851L114.8 6.67901ZM121.242 10.8328C121.186 11.9242 120.576 12.6044 119.486 12.5854C119.134 12.5931 118.787 12.4903 118.481 12.2877C118.174 12.0852 117.92 11.7903 117.745 11.4338L118.381 10.9878C119.193 10.393 120.108 9.68123 120.547 9.6148C121.112 9.50723 121.283 10.0672 121.256 10.8296L121.242 10.8328Z" fill="#F4D3A2"/>
<line y1="-1" x2="52.2454" y2="-1" transform="matrix(0.999982 0.00603682 -0.0046372 0.999989 0 6.32712)" stroke="#F4D3A2" stroke-width="2"/>
<line y1="-1" x2="52.2454" y2="-1" transform="matrix(0.999981 0.00618334 -0.00452732 0.99999 153.756 6.64346)" stroke="#F4D3A2" stroke-width="2"/>
</svg>
