<svg width="16" height="16" viewBox="0 0 16 16" fill="none" xmlns="http://www.w3.org/2000/svg">
<g clip-path="url(#clip0_15_1119)">
<path d="M14.5483 13.2732C13.6597 13.2986 12.5748 13.9846 11.2832 14.5655C10.1647 15.0781 9.1521 15.5926 8.26092 15.579C7.61513 15.579 7.31807 15.2632 7.28449 14.8286C7.19666 14.0373 8.54248 13.7352 9.69456 13.6942C9.75198 13.705 9.81111 13.7095 9.87022 13.7079C12.226 13.7079 14.618 12.324 14.618 10.2151C14.6274 9.70004 14.4486 9.19295 14.1014 8.74942C13.9327 8.54471 13.7285 8.3579 13.4944 8.19393C13.2462 8.02558 12.9647 7.88748 12.66 7.78462C12.31 7.63185 11.9394 7.50771 11.5544 7.41429C11.1327 7.33157 10.6986 7.28965 10.2629 7.28955C7.92253 7.28955 5.51245 8.60713 5.51245 10.7804C5.51245 12.1895 6.68778 13.1407 8.279 13.5091C8.31862 13.5178 8.35341 13.5361 8.37816 13.561C8.4029 13.586 8.41628 13.6163 8.41628 13.6475C8.41628 13.6786 8.4029 13.7089 8.37816 13.7339C8.35341 13.7588 8.31862 13.7771 8.279 13.7858C7.28191 13.9807 6.32872 14.3803 6.35455 14.9904C6.38039 15.6004 7.07009 15.846 7.99485 15.7934C8.7698 15.7564 9.58349 15.4523 10.3455 15.1093C10.387 15.0895 10.4369 15.0826 10.485 15.0898C10.5331 15.0971 10.5756 15.118 10.6038 15.1482C10.847 15.4143 11.1741 15.6306 11.5555 15.7775C11.937 15.9245 12.3609 15.9976 12.7892 15.9902C14.2719 15.9902 16.0207 15.3198 16.0207 14.279C16 13.7079 15.597 13.2615 14.5483 13.2732ZM6.97709 11.2033C6.36489 9.60896 6.90735 7.96198 8.89895 7.52734C10.8906 7.09269 12.5309 8.21342 13.1431 9.79412C13.7553 11.3748 13.1947 13.0354 11.2212 13.4701C9.24768 13.9047 7.59963 12.786 6.97709 11.2033ZM14.9228 14.5167C14.8531 15.388 14.1014 15.9279 12.7582 15.9142C12.3202 15.9206 11.888 15.8377 11.5071 15.6745C11.1262 15.5112 10.8106 15.2736 10.5935 14.9865L11.3684 14.6298C12.381 14.1562 13.4995 13.589 14.0394 13.5364C14.7601 13.4564 14.9693 13.9067 14.9332 14.5109L14.9228 14.5167Z" fill="#F4D3A2"/>
<path d="M6.48629 2.00757L7.51954 1.04862C7.65387 0.925832 7.81661 0.791346 8.03617 0.793295C8.25574 0.795244 8.35132 0.886852 8.51405 0.927782C8.64732 0.960593 8.7913 0.9588 8.92306 0.922691C9.05482 0.886582 9.16677 0.818232 9.24106 0.728538C9.31536 0.638845 9.34772 0.532969 9.333 0.427783C9.31828 0.322597 9.25732 0.224158 9.15984 0.14815C9.01537 0.0580854 8.83502 0.00721032 8.64767 0.00367637C8.46033 0.00014243 8.27684 0.0441529 8.12658 0.128658C7.83489 0.302628 7.61528 0.535964 7.49371 0.801093C7.36844 1.06942 7.20382 1.32634 7.00291 1.56708C6.48629 2.10503 5.31354 1.9569 4.52051 2.12842C3.69102 2.31404 2.91784 2.62064 2.24476 3.03084C1.53827 3.46721 0.970196 4.01737 0.582214 4.64097C0.194232 5.26458 -0.00381769 5.94581 0.00259218 6.63469C0.00259218 8.53894 1.59123 9.82338 3.7404 10.3379C3.79513 10.3492 3.84343 10.3737 3.87787 10.4076C3.91231 10.4416 3.93097 10.4832 3.93097 10.526C3.93097 10.5688 3.91231 10.6104 3.87787 10.6444C3.84343 10.6784 3.79513 10.7029 3.7404 10.7141C2.39458 10.9811 1.1056 11.5171 1.13918 12.3396C1.17276 13.1622 2.10786 13.4974 3.3581 13.4253C4.39136 13.3746 5.50211 12.9653 6.5302 12.5014C6.5852 12.4764 6.65062 12.4677 6.71367 12.477C6.77672 12.4864 6.83288 12.5132 6.87117 12.5521C7.4343 13.1037 8.25832 13.6923 9.82371 13.6923C11.8282 13.6923 14.1866 12.784 14.1866 11.3787C14.1866 10.5991 13.6442 9.98906 12.2286 10.0144C11.0249 10.0495 9.56281 10.9753 7.81661 11.7588C6.30805 12.4527 4.93898 13.1466 3.73524 13.1232C2.86213 13.1232 2.46175 12.6963 2.41525 12.1077C2.29642 11.0396 4.11238 10.6303 5.67001 10.5777C5.747 10.5913 5.82604 10.5972 5.90508 10.5952C9.0901 10.5952 12.3242 8.72605 12.3242 5.87649C12.3402 5.26475 12.1529 4.65971 11.7793 4.11666C11.4056 3.5736 10.8577 3.10984 10.1853 2.76771L10.1518 2.74433C9.98945 2.68918 9.84623 2.60646 9.7333 2.50264C9.52255 2.45275 9.31559 2.3942 9.11334 2.32722L9.05393 2.30383C9.03085 2.30273 9.00816 2.29878 8.98677 2.29214C8.17099 2.04887 7.30147 1.92453 6.42429 1.92571C6.30547 1.92571 6.18664 1.92571 6.06782 1.92571M2.01228 7.20382C1.18826 5.05009 1.91929 2.82619 4.59542 2.23756C7.27156 1.64894 9.5034 3.16338 10.33 5.29957C11.1566 7.43576 10.3998 9.67915 7.74686 10.2658C5.09397 10.8525 2.84405 9.33221 2.00453 7.19407L2.01228 7.20382ZM12.7401 11.6633C12.6471 12.8328 11.6319 13.5676 9.81596 13.55C8.06975 13.5325 7.33872 12.8035 6.88926 12.3046L7.95093 11.8231C9.32 11.1819 10.8286 10.4179 11.5673 10.3457C12.505 10.2385 12.7866 10.8447 12.7401 11.6633Z" fill="#F4D3A2"/>
</g>
<defs>
<clipPath id="clip0_15_1119">
<rect width="16" height="16" fill="white"/>
</clipPath>
</defs>
</svg>
